<svg xmlns="http://www.w3.org/2000/svg" width="18.5" height="13.5" viewBox="0 0 18.5 13.5">
  <defs>
    <style>
      .cls-1 {
        fill: #888;
        fill-rule: evenodd;
      }
    </style>
  </defs>
  <path id="Shopping_Cart_copy_2" data-name="Shopping Cart copy 2" class="cls-1" d="M247.281,1432.28a1.412,1.412,0,0,0-1,.4,1.311,1.311,0,0,0-.413.96,1.345,1.345,0,0,0,.413.96,1.466,1.466,0,0,0,1.991,0,1.348,1.348,0,0,0,.412-0.96,1.314,1.314,0,0,0-.412-0.96,1.414,1.414,0,0,0-1-.4h0Zm-0.587.79a0.864,0.864,0,0,1,1.174,0,0.8,0.8,0,0,1,.243.57,0.765,0.765,0,0,1-.243.56,0.838,0.838,0,0,1-1.174,0,0.765,0.765,0,0,1-.243-0.56A0.8,0.8,0,0,1,246.694,1433.07Zm8.877-1.13a0.293,0.293,0,0,0,.4.09,0.271,0.271,0,0,0,.1-0.38l-0.423-.67a0.3,0.3,0,0,0-.246-0.13h-8.765a0.275,0.275,0,1,0,0,.55h8.6Zm0.522-4.85a0.275,0.275,0,1,0,0-.55h-11l-0.236-1.21a0.3,0.3,0,0,0-.335-0.23,0.286,0.286,0,0,0-.231.33l0.275,1.41a0.287,0.287,0,0,0,.288.25h11.236Zm-11.516-1.99a0.275,0.275,0,1,0,0,.55h12.168a0.275,0.275,0,1,0,0-.55H244.577Zm11.935,4.86a0.275,0.275,0,1,0,0-.55H245.655l-0.236-1.21a0.285,0.285,0,0,0-.336-0.22,0.276,0.276,0,0,0-.23.32l0.275,1.41a0.286,0.286,0,0,0,.287.26h11.1v-0.01Zm3.533-8.45a0.275,0.275,0,1,0,0,.55H262.2a0.275,0.275,0,1,0,0-.55h-2.155Zm-3.8,8.07a0.27,0.27,0,0,0,.151.36,0.292,0.292,0,0,0,.379-0.14l3.533-7.91a0.269,0.269,0,0,0-.151-0.36,0.288,0.288,0,0,0-.379.15Zm-11.111-1.61a0.28,0.28,0,1,0,0,.56h10.3a0.287,0.287,0,0,0,.263-0.17h0l0.653-1.44a0.269,0.269,0,0,0-.15-0.36,0.293,0.293,0,0,0-.379.14l-0.577,1.27H245.136Zm16.148-4.86a0.281,0.281,0,0,0,.149.37,0.3,0.3,0,0,0,.379-0.15l0.653-1.43a0.279,0.279,0,0,0-.15-0.37,0.293,0.293,0,0,0-.379.14Zm-4.8,2.16a0.269,0.269,0,0,0,.149.36,0.292,0.292,0,0,0,.379-0.14l0.653-1.44a0.268,0.268,0,0,0-.149-0.36,0.244,0.244,0,0,0-.115-0.03H244.3a0.28,0.28,0,1,0,0,.56h12.661Zm4.362-2.33a0.287,0.287,0,0,0-.288.28,0.281,0.281,0,0,0,.288.28h0.7a0.282,0.282,0,0,0,.289-0.28,0.288,0.288,0,0,0-.289-0.28h-0.7Zm-3.864,9.34a1.414,1.414,0,0,0-1,.4,1.314,1.314,0,0,0-.412.96,1.348,1.348,0,0,0,.412.96,1.466,1.466,0,0,0,1.991,0,1.344,1.344,0,0,0,.412-0.96,1.31,1.31,0,0,0-.412-0.96,1.412,1.412,0,0,0-1-.4h0Zm-0.587.79a0.864,0.864,0,0,1,1.174,0,0.8,0.8,0,0,1,.243.57,0.765,0.765,0,0,1-.243.56,0.838,0.838,0,0,1-1.174,0,0.765,0.765,0,0,1-.243-0.56A0.8,0.8,0,0,1,256.392,1433.07Z" transform="translate(-244 -1421.5)"/>
</svg>
