<svg id="Группа_1" data-name="Группа 1" xmlns="http://www.w3.org/2000/svg" width="15.125" height="16.47" viewBox="0 0 15.125 16.47">
  <defs>
    <style>
      .cls-1, .cls-2 {
        fill: #888;
        fill-rule: evenodd;
      }

      .cls-1 {
        stroke: #888;
        stroke-linejoin: round;
        stroke-width: 1px;
      }
    </style>
  </defs>
  <path id="Call_Answer_IOS_7_Interface_Symbol" data-name="Call Answer, IOS 7 Interface Symbol" class="cls-1" d="M632.826,2676.44l-1.156-1.16a0.6,0.6,0,0,0-.85.02l-0.583.58-0.115-.06a6.043,6.043,0,0,1-1.4-1.02,5.774,5.774,0,0,1-1.015-1.41c-0.022-.04-0.043-0.08-0.063-0.11l0.391-.4,0.192-.19a0.6,0.6,0,0,0,.016-0.85l-1.157-1.17a0.6,0.6,0,0,0-.85.02l-0.325.33,0.009,0.01a1.913,1.913,0,0,0-.269.47,2.058,2.058,0,0,0-.12.49c-0.152,1.27.426,2.43,2,4.01,2.169,2.18,3.918,2.01,3.993,2.01a1.685,1.685,0,0,0,.482-0.13,1.909,1.909,0,0,0,.472-0.26h0.007l0.33-.32A0.615,0.615,0,0,0,632.826,2676.44Zm-0.273.6-0.145.14-0.058.06a1.58,1.58,0,0,1-.871.4c-0.017,0-1.661.15-3.7-1.9-1.73-1.74-2.008-2.74-1.891-3.71a1.469,1.469,0,0,1,.1-0.39,1.424,1.424,0,0,1,.3-0.49l0.2-.2a0.236,0.236,0,0,1,.337-0.02l1.156,1.16a0.243,0.243,0,0,1-.016.34l-0.78.79,0.072,0.12c0.04,0.07.082,0.14,0.127,0.23a6.361,6.361,0,0,0,1.076,1.49,6.262,6.262,0,0,0,1.482,1.08c0.084,0.04.16,0.09,0.228,0.13l0.122,0.07,0.78-.79a0.246,0.246,0,0,1,.338-0.01l1.155,1.16A0.242,0.242,0,0,1,632.553,2677.04Z" transform="translate(-621.844 -2665.5)"/>
  <path id="Update_Arrow" data-name="Update Arrow" class="cls-2" d="M632.505,2665.82a0.622,0.622,0,0,1-.229.85l-0.737.43a7.6,7.6,0,1,1-7.761,2.2,0.617,0.617,0,0,1,.878-0.05,0.625,0.625,0,0,1,.045.88,6.327,6.327,0,1,0,6.484-1.84l0.446,0.78a0.622,0.622,0,1,1-1.078.62l-1.184-2.06a0.627,0.627,0,0,1,.078-0.73,0.489,0.489,0,0,1,.151-0.12l2.058-1.19A0.621,0.621,0,0,1,632.505,2665.82Z" transform="translate(-621.844 -2665.5)"/>
</svg>
