<svg xmlns="http://www.w3.org/2000/svg" width="25.25" height="19.031" viewBox="0 0 25.25 19.031">
  <defs>
    <style>
      .cls-1 {
        fill: #fff;
        fill-rule: evenodd;
      }
    </style>
  </defs>
  <path id="Shopping_Cart" data-name="Shopping Cart" class="cls-1" d="M961.037,113.3a1.927,1.927,0,0,0-1.36.56,1.9,1.9,0,0,0,0,2.7,1.931,1.931,0,0,0,2.72,0,1.9,1.9,0,0,0,0-2.7,1.921,1.921,0,0,0-1.36-.56h0Zm-0.8,1.115a1.14,1.14,0,0,1,1.6,0,1.124,1.124,0,0,1,0,1.595A1.131,1.131,0,1,1,960.235,114.416Zm12.127-1.6a0.4,0.4,0,0,0,.539.132,0.389,0.389,0,0,0,.133-0.536l-0.578-.947a0.393,0.393,0,0,0-.336-0.188v0H960.146a0.392,0.392,0,1,0,0,.784H971.9Zm0.713-6.837a0.392,0.392,0,1,0,0-.784H958.052l-0.322-1.7a0.393,0.393,0,0,0-.773.143l0.376,1.993a0.394,0.394,0,0,0,.392.353h15.35Zm-15.732-2.81a0.392,0.392,0,1,0,0,.784h16.623a0.392,0.392,0,1,0,0-.784H957.343Zm16.305,6.863a0.392,0.392,0,1,0,0-.784H958.815l-0.321-1.706a0.394,0.394,0,0,0-.774.144l0.375,1.994a0.4,0.4,0,0,0,.393.353h15.16ZM978.474,98.1a0.392,0.392,0,1,0,0,.784h2.944a0.392,0.392,0,1,0,0-.784h-2.944Zm-5.188,11.382a0.391,0.391,0,0,0,.206.515,0.4,0.4,0,0,0,.518-0.2l4.826-11.146a0.39,0.39,0,0,0-.206-0.514,0.4,0.4,0,0,0-.518.205Zm-15.179-2.262a0.391,0.391,0,1,0,0,.781h14.076a0.392,0.392,0,0,0,.36-0.234h0l0.891-2.027a0.393,0.393,0,0,0-.721-0.312l-0.789,1.792H958.107Zm22.059-6.858a0.393,0.393,0,0,0,.721.312l0.892-2.026a0.393,0.393,0,0,0-.721-0.312Zm-6.561,3.04a0.393,0.393,0,0,0,.722.312l0.892-2.026a0.391,0.391,0,0,0-.2-0.515,0.4,0.4,0,0,0-.157-0.033h-17.9a0.393,0.393,0,1,0,0,.785h17.295Zm5.959-3.276a0.393,0.393,0,1,0,0,.785h0.963a0.393,0.393,0,1,0,0-.785h-0.963ZM974.285,113.3a1.927,1.927,0,0,0-1.36.56,1.9,1.9,0,0,0,0,2.7,1.931,1.931,0,0,0,2.72,0,1.9,1.9,0,0,0,0-2.7,1.923,1.923,0,0,0-1.36-.56h0Zm-0.8,1.115a1.14,1.14,0,0,1,1.6,0,1.124,1.124,0,0,1,0,1.595,1.14,1.14,0,0,1-1.6,0A1.124,1.124,0,0,1,973.483,114.416Z" transform="translate(-956.563 -98.094)"/>
</svg>
