<svg xmlns="http://www.w3.org/2000/svg" width="14.438" height="14.438" viewBox="0 0 14.438 14.438">
  <defs>
    <style>
      .cls-1 {
        fill: #888;
        fill-rule: evenodd;
      }
    </style>
  </defs>
  <path id="Clock" class="cls-1" d="M573.346,91.462A7.259,7.259,0,0,0,566.7,87.05a7,7,0,0,0-2.8.577,7.224,7.224,0,0,0,0,13.3,7.1,7.1,0,0,0,5.606,0A7.2,7.2,0,0,0,573.346,91.462Zm-1.151,6a6.331,6.331,0,0,1-2.318,2.316,6.2,6.2,0,0,1-3.178.854,6.094,6.094,0,0,1-2.46-.506,6.2,6.2,0,0,1-3.367-3.384,6.407,6.407,0,0,1,.347-5.653,6.338,6.338,0,0,1,2.311-2.316,6.323,6.323,0,0,1,6.347,0A6.352,6.352,0,0,1,572.2,91.09,6.383,6.383,0,0,1,572.2,97.463Zm-5.038-3.257v-4.1a0.455,0.455,0,0,0-.458-0.443,0.445,0.445,0,0,0-.433.443v4.158a0.379,0.379,0,0,1,.015.063,0.416,0.416,0,0,0,.119.356l2.357,2.364a0.447,0.447,0,0,0,.607,0,0.426,0.426,0,0,0,0-.617Z" transform="translate(-559.5 -87.063)"/>
</svg>
