<svg xmlns="http://www.w3.org/2000/svg" width="11" height="12" viewBox="0 0 11 12">
  <defs>
    <style>
      .cls-1 {
        fill: #888;
        fill-rule: evenodd;
      }
    </style>
  </defs>
  <path id="Login_Arrow_Outline" data-name="Login Arrow Outline" class="cls-1" d="M899.222,43h-5.311a0.445,0.445,0,0,0,0,.889h5.216V54.111h-5.2a0.445,0.445,0,0,0,0,.889h5.295A0.786,0.786,0,0,0,900,54.207V43.793A0.786,0.786,0,0,0,899.222,43ZM889,47.695v2.537a1.146,1.146,0,0,0,1.134,1.155h2.844V51.8a1.173,1.173,0,0,0,.1.469,1.14,1.14,0,0,0,1.039.686,1.118,1.118,0,0,0,.762-0.3l3.05-2.833a1.168,1.168,0,0,0,0-1.706l-3.05-2.833a1.118,1.118,0,0,0-1.541.012,1.136,1.136,0,0,0-.26.372,1.174,1.174,0,0,0-.1.469v0.41h-2.844A1.146,1.146,0,0,0,889,47.695Zm4.59-.266a0.264,0.264,0,0,0,.261-0.266V46.13a0.263,0.263,0,0,1,.263-0.266,0.254,0.254,0,0,1,.174.07l3.05,2.833a0.27,0.27,0,0,1,0,.392l-3.05,2.833a0.254,0.254,0,0,1-.174.07,0.263,0.263,0,0,1-.263-0.266V50.763a0.263,0.263,0,0,0-.261-0.266h-3.456a0.263,0.263,0,0,1-.261-0.265V47.695a0.263,0.263,0,0,1,.261-0.266h3.456Z" transform="translate(-889 -43)"/>
</svg>
