<svg xmlns="http://www.w3.org/2000/svg" width="27" height="27" viewBox="0 0 27 27">
  <defs>
    <style>
      .cls-1 {
        stroke: #000;
        stroke-linejoin: round;
        stroke-width: 1px;
        fill-rule: evenodd;
      }
    </style>
  </defs>
  <path id="Phone_Reciever" data-name="Phone Reciever" class="cls-1" d="M717.2,95.007a0.32,0.32,0,0,1-.588.25,3.537,3.537,0,0,0-.755-1.117h0a3.511,3.511,0,0,0-.524-0.432,3.449,3.449,0,0,0-.591-0.323,0.319,0.319,0,0,1,.248-0.588,4.175,4.175,0,0,1,1.321.889h0A4.141,4.141,0,0,1,717.2,95.007Zm2.036,0.043a0.32,0.32,0,0,1-.619.165,5.377,5.377,0,0,0-.543-1.3,5.508,5.508,0,0,0-1.989-1.989,5.368,5.368,0,0,0-1.3-.542,0.32,0.32,0,1,1,.165-0.619A6.1,6.1,0,0,1,719.239,95.05Zm1.97,0.021a0.32,0.32,0,0,1-.628.122,7.282,7.282,0,0,0-.726-2.022l-0.009-.017a7.4,7.4,0,0,0-1.28-1.717h0a7.4,7.4,0,0,0-1.734-1.288,7.321,7.321,0,0,0-2.023-.725,0.32,0.32,0,1,1,.122-0.628,7.962,7.962,0,0,1,2.2.79,8.067,8.067,0,0,1,1.886,1.4h0a8.035,8.035,0,0,1,1.39,1.865l0.01,0.018A7.871,7.871,0,0,1,721.209,95.071Zm1.661,8.685a0.319,0.319,0,1,1-.378.515l-5-3.66-0.324.324-0.518.517c-1.231,1.23-3.078.939-4.778-.095a10.035,10.035,0,0,1-3.241-3.239c-1.036-1.7-1.331-3.545-.107-4.768l0.851-.85-3.442-4.694-1.554,1.542h0l-0.013.013a4.43,4.43,0,0,0-.915,4.8c0.649,2.037,2.3,4.441,5,7.158l0.109,0.109h0c0.184,0.185.336,0.335,0.454,0.449,2.619,2.539,4.948,4.094,6.923,4.7a4.352,4.352,0,0,0,4.652-.912l0.016-.015,0.038-.039,0.411-.424a0.32,0.32,0,1,1,.458.446l-0.411.424v0l-0.04.039-0.018.02a4.946,4.946,0,0,1-5.29,1.069c-2.074-.634-4.491-2.24-7.184-4.85-0.186-.18-0.34-0.332-0.462-0.453h0l-0.109-.11c-2.771-2.79-4.474-5.281-5.154-7.415a5.027,5.027,0,0,1,1.07-5.444l0.014-.014h0l1.818-1.8a0.266,0.266,0,0,1,.036-0.031,0.321,0.321,0,0,1,.447.069l3.81,5.195a0.321,0.321,0,0,1-.016.435L708.982,93.8c-0.974.973-.689,2.524,0.2,3.982a9.473,9.473,0,0,0,3.028,3.026c1.458,0.887,3.011,1.168,3.992.187l0.517-.517,0.518-.517h0a0.319,0.319,0,0,1,.414-0.032Zm-1.393,1.392a0.32,0.32,0,0,1-.378.516l-1.305-.956-1.3-.955-1.3-.956a0.319,0.319,0,1,1,.378-0.515l1.3,0.956,1.305,0.955ZM704.324,88.9a0.32,0.32,0,0,1,.516-0.378l0.955,1.3,0.956,1.3,0.957,1.3a0.32,0.32,0,0,1-.516.378l-0.955-1.3-0.957-1.3Z" transform="translate(-699 -84)"/>
</svg>
