<svg xmlns="http://www.w3.org/2000/svg" width="11.5" height="11.5" viewBox="0 0 11.5 11.5">
  <defs>
    <style>
      .cls-1 {
        fill: #888;
        fill-rule: evenodd;
      }
    </style>
  </defs>
  <path id="Edit_Tool" data-name="Edit Tool" class="cls-1" d="M983.873,46.021l-1.448-1.448h0l-1.448-1.448a0.416,0.416,0,0,0-.589,0l-7.011,7.014a0.418,0.418,0,0,0-.114.211L972.509,54a0.416,0.416,0,0,0,.407.5A0.43,0.43,0,0,0,973,54.492l3.65-.754a0.419,0.419,0,0,0,.211-0.113l7.011-7.014A0.416,0.416,0,0,0,983.873,46.021Zm-9.951,5.252,1.8,1.806-2.275.47Zm2.645,1.468-2.308-2.309,6.422-6.425,0.86,0.86-3.886,3.888a0.417,0.417,0,1,0,.589.589l3.886-3.888,0.859,0.86Z" transform="translate(-972.5 -43)"/>
</svg>
