<svg xmlns="http://www.w3.org/2000/svg" width="26.5" height="26.5" viewBox="0 0 26.5 26.5">
  <defs>
    <style>
      .cls-1 {
        fill: #fff;
        fill-rule: evenodd;
      }
    </style>
  </defs>
  <path id="Old_Round_Clock" data-name="Old Round Clock" class="cls-1" d="M379.25,1576.5a13.25,13.25,0,1,0,13.25,13.25A13.246,13.246,0,0,0,379.25,1576.5Zm0.7,25.07v-0.7a0.7,0.7,0,0,0-1.394,0v0.7a11.849,11.849,0,0,1-11.123-11.12h0.7a0.7,0.7,0,0,0,0-1.4h-0.7a11.853,11.853,0,0,1,11.123-11.12v0.7a0.7,0.7,0,0,0,1.394,0v-0.7a11.849,11.849,0,0,1,11.123,11.12h-0.7a0.7,0.7,0,0,0,0,1.4h0.7A11.826,11.826,0,0,1,379.947,1601.57Zm3.487-7.64a0.672,0.672,0,0,1-.976,0l-3.7-3.69a0.634,0.634,0,0,1-.209-0.49v-8.37a0.7,0.7,0,1,1,1.394,0v8.09l3.487,3.49A0.667,0.667,0,0,1,383.434,1593.93Z" transform="translate(-366 -1576.5)"/>
</svg>
