<svg xmlns="http://www.w3.org/2000/svg" width="22" height="26.5" viewBox="0 0 22 26.5">
  <defs>
    <style>
      .cls-1 {
        fill: #fff;
        fill-rule: evenodd;
      }
    </style>
  </defs>
  <path id="Sales_Ticket" data-name="Sales Ticket" class="cls-1" d="M369,511.872v18.709a0.848,0.848,0,0,0,.42.741l10.044,6.047a0.85,0.85,0,0,0,.449.131,0.9,0.9,0,0,0,.463-0.131l10.219-6.425a0.854,0.854,0,0,0,.4-0.741V511.872a0.873,0.873,0,0,0-.868-0.872H369.868A0.873,0.873,0,0,0,369,511.872Zm1.737,0.872h18.526v16.979L379.9,535.61l-9.162-5.524V512.744h0Zm8.452,5.1a3.249,3.249,0,1,0-3.242,3.27A3.268,3.268,0,0,0,379.189,517.847Zm-4.761,0a1.513,1.513,0,1,1,1.519,1.526A1.523,1.523,0,0,1,374.428,517.847Zm5.934,9.361a3.257,3.257,0,1,0,3.256-3.256A3.269,3.269,0,0,0,380.362,527.208Zm4.762,0a1.52,1.52,0,1,1-1.506-1.512A1.508,1.508,0,0,1,385.124,527.208Zm-0.087-11.745a0.87,0.87,0,0,0-1.216.16l-9.06,11.978a0.877,0.877,0,0,0,.159,1.221,0.9,0.9,0,0,0,.521.174,0.863,0.863,0,0,0,.7-0.349l9.075-11.963A0.868,0.868,0,0,0,385.037,515.463Z" transform="translate(-369 -511)"/>
</svg>
