<svg xmlns="http://www.w3.org/2000/svg" width="32" height="23" viewBox="0 0 32 23">
  <defs>
    <style>
      .cls-1 {
        fill: #333;
        stroke: #333;
        stroke-linejoin: round;
        stroke-width: 1px;
        fill-rule: evenodd;
      }
    </style>
  </defs>
  <path id="Real_Estate_Caravan" data-name="Real Estate Caravan" class="cls-1" d="M308.06,199.5a2.454,2.454,0,0,1-2.281-2.318H294.842a2.279,2.279,0,1,1-4.557.027h-2.952a0.364,0.364,0,0,1-.333-0.388v-12.9a0.4,0.4,0,0,1,.2-0.353l8.311-.029a0.29,0.29,0,0,1,.285,0l7.622,0.029a0.4,0.4,0,0,1,.186.348v2.611h3.267a0.332,0.332,0,0,1,.3.215l1.47,3.43,4.132,1.509a0.384,0.384,0,0,1,.233.37v4.741a0.364,0.364,0,0,1-.333.388H310.34A2.453,2.453,0,0,1,308.06,199.5Zm0-4.578a1.923,1.923,0,1,0,1.634,1.935,0.381,0.381,0,0,1,0-.059,1.9,1.9,0,0,0-1.122-1.782A1.422,1.422,0,0,0,308.06,194.922Zm-15.5,0a1.923,1.923,0,1,0,1.634,1.9A1.785,1.785,0,0,0,292.562,194.919Zm-4.9,1.514h2.618a2.275,2.275,0,1,1,4.55-.027h8.1V184.159l-7.294.159-7.972-.15v12.265Zm22.666-.027h2v-4.068l-4.033-1.473a0.359,0.359,0,0,1-.2-0.2l-1.441-3.363H303.6v9.1h2.184a2.45,2.45,0,0,1,2.272-2.262,2,2,0,0,1,.655.111A2.588,2.588,0,0,1,310.333,196.406Zm-11.7-3.965h-6.676a0.364,0.364,0,0,1-.333-0.388v-5.136a0.364,0.364,0,0,1,.333-0.388h6.676a0.364,0.364,0,0,1,.333.388v5.136A0.364,0.364,0,0,1,298.638,192.441Zm-6.343-.776H298.3v-4.36H292.3v4.36Z" transform="translate(-284 -180)"/>
</svg>
