<svg xmlns="http://www.w3.org/2000/svg" width="14.5" height="21" viewBox="0 0 14.5 21">
  <defs>
    <style>
      .cls-1 {
        fill-rule: evenodd;
      }
    </style>
  </defs>
  <path id="Text_Document_Interface_Symbol_Of_Stroke_With_Lines" data-name="Text Document Interface Symbol Of Stroke With Lines" class="cls-1" d="M488.789,197.111h9.921v0.778h-9.921v-0.778Zm0.764-14h0.763v3.111h0.763v-3.111h0.763v0.778h0.763v-1.556h-3.816v1.556h0.764v-0.778Zm-0.764,11.667h9.921v0.777h-9.921v-0.777ZM496.421,180h-8.395a1.546,1.546,0,0,0-1.526,1.556v17.888A1.546,1.546,0,0,0,488.026,201h11.448A1.546,1.546,0,0,0,501,199.444v-14Zm0,1.167,3.587,4.277h-2.824a0.828,0.828,0,0,1-.763-0.777v-3.5Zm3.816,18.277a0.772,0.772,0,0,1-.763.778H488.026a0.772,0.772,0,0,1-.763-0.778V181.556a0.772,0.772,0,0,1,.763-0.778h7.632v3.889a1.546,1.546,0,0,0,1.526,1.555h3.053v13.222Zm-11.448-11.666h9.921v0.778h-9.921v-0.778Zm0,4.666h9.921v0.778h-9.921v-0.778Zm0-2.333h9.921v0.778h-9.921v-0.778Z" transform="translate(-486.5 -180)"/>
</svg>
