<svg xmlns="http://www.w3.org/2000/svg" width="15.5" height="18.5" viewBox="0 0 15.5 18.5">
  <defs>
    <style>
      .cls-1 {
        fill-rule: evenodd;
      }
    </style>
  </defs>
  <path id="Speech_Bubble_With_Question_Mark" data-name="Speech Bubble With Question Mark" class="cls-1" d="M766.25,196.538a1.245,1.245,0,1,1,1.255-1.237A1.24,1.24,0,0,1,766.25,196.538Zm0-1.744a0.5,0.5,0,1,0,.508.507A0.5,0.5,0,0,0,766.25,194.794Zm0-1.163a1.24,1.24,0,0,1-1.239-1.237,3.235,3.235,0,0,1,1.563-2.867,0.893,0.893,0,0,0,.617-1.054,0.934,0.934,0,0,0-1.867,0,1.247,1.247,0,1,1-2.494,0,3.42,3.42,0,0,1,6.84,0,3.3,3.3,0,0,1-1.983,3.285,0.879,0.879,0,0,0-.182.636A1.248,1.248,0,0,1,766.25,193.631Zm0-6.828a1.681,1.681,0,0,1,1.688,1.67,1.6,1.6,0,0,1-1.028,1.72,2.543,2.543,0,0,0-1.153,2.2,0.5,0.5,0,0,0,1,0,1.638,1.638,0,0,1,.595-1.3,2.57,2.57,0,0,0,1.571-2.619,2.674,2.674,0,0,0-5.348,0,0.5,0.5,0,1,0,1,0A1.674,1.674,0,0,1,766.25,186.8ZM772.3,183H760.2a1.7,1.7,0,0,0-1.7,1.7v12.059a1.7,1.7,0,0,0,1.7,1.7h0.565l-1.043,2.529a0.372,0.372,0,0,0,.091.414,0.376,0.376,0,0,0,.255.1,0.386,0.386,0,0,0,.165-0.038l6.1-3H772.3a1.7,1.7,0,0,0,1.7-1.7V184.7A1.7,1.7,0,0,0,772.3,183Zm0.956,13.758a0.956,0.956,0,0,1-.956.954H766.25a0.325,0.325,0,0,0-.165.039l-5.294,2.606,0.877-2.126a0.492,0.492,0,0,0,.03-0.146,0.373,0.373,0,0,0-.373-0.373H760.2a0.956,0.956,0,0,1-.956-0.954V184.7a0.956,0.956,0,0,1,.956-0.954h12.1a0.956,0.956,0,0,1,.956.954v12.059h0Z" transform="translate(-758.5 -183)"/>
</svg>
